<?xml version="1.0" encoding="UTF-8"?>
<svg width="400px" height="75px" viewBox="0 0 400 75" version="1.1" xmlns="http://www.w3.org/2000/svg" xmlns:xlink="http://www.w3.org/1999/xlink">
    <title>Artboard 8 Copy 2</title>
    <g id="Artboard-8-Copy-2" stroke="none" stroke-width="1" fill="none" fill-rule="evenodd">
        <path d="M83.1226002,48 L11.8785426,48 C11.7726533,47.9928336 11.7446151,47.9964168 11.6417086,47.9674528 C11.2945113,47.8701096 11.0266563,47.542547 11.0018991,47.180347 C10.9801247,46.8608465 11.1471612,46.5359713 11.4221749,46.3684575 C11.5247831,46.3060504 11.639919,46.2651424 11.7589325,46.2487195 C11.7986037,46.2430461 11.8388714,46.2430461 11.8785426,46.2403587 L18.5668637,46.2403587 C16.1845054,43.9118872 15.7949523,41.0943112 16.3569109,39.2642007 C17.1058907,36.832414 19.0366539,36.3728709 20.9247631,36.9527493 C22.9467998,37.5786118 23.7381353,40.0381681 23.1597714,41.9265054 C23.095343,42.1286566 22.9921383,42.4654758 22.7797633,42.919047 C22.5450173,43.4380113 22.1101258,43.8960615 21.9239994,44.5046053 C21.7172917,45.1773479 22.0224317,45.7620038 22.5500881,46.2403587 L30.6898373,46.2403587 C31.2774479,45.6816808 31.7180067,44.9955013 31.9524544,44.2278045 C32.6814495,41.8718619 31.1924382,40.227181 30.5758945,39.5959437 L27.5769924,36.382426 C26.2055033,34.8536014 23.1884062,30.5902112 24.6601172,25.802482 C25.2280414,23.9559486 26.4229491,21.9977392 28.1571461,20.7015229 C31.8185269,17.9702419 35.799365,17.5220455 39.5893043,18.612826 C44.4954055,20.0248986 46.8515152,23.2715607 49.9067921,25.7806843 C51.617425,20.7588538 53.9881504,15.8424286 57.553187,11.6939989 C60.7728158,7.91612997 65.0987634,5.17798122 70.0534841,5.00837724 C75.0037306,4.84474523 78.7459452,7.09080356 78.8694329,10.6465152 C78.9192455,12.1598126 78.052147,15.1016056 75.0323654,15.2034277 C72.7737931,15.2816605 71.2143879,13.9305021 71.1439939,11.8785328 C71.1186402,11.126363 71.3128201,10.4679532 71.8276505,9.69846474 C72.3311463,8.71189512 72.4388252,8.59872627 72.4259992,8.16964014 C72.3806607,6.8758126 70.4299128,6.82803683 69.8959925,6.85311911 C62.5738274,7.09528254 60.6439591,16.9872555 59.0794831,25.0303062 L58.3132031,29.2718986 C62.5296821,29.8891018 65.5232151,29.1282727 67.1929837,28.0470474 C69.5437244,26.5191185 66.5352774,24.9493859 66.9146889,23.2124381 C67.2988729,21.4414501 68.9080908,20.5865625 70.1865167,20.5507306 C71.9761937,20.506538 73.2537248,22.365314 73.2122639,24.2518597 C73.1478356,27.370423 69.0157697,31.6550137 60.7492518,31.4800349 C59.7422602,31.4564457 58.8158041,31.3859764 57.9513901,31.2814669 L56.3919849,39.8990212 C55.9782712,41.8333426 55.5239915,43.9778775 54.9169928,46.2403587 L83.1226002,46.2403587 L83.2422103,46.2487195 C83.2815832,46.2567816 83.3212543,46.2621564 83.3597324,46.2732046 C83.6678551,46.3594995 83.9175151,46.6258494 83.9831365,46.9411695 C84.0642686,47.3317364 83.845928,47.7650029 83.4727803,47.927142 C83.3994036,47.959092 83.3218509,47.9808897 83.2422103,47.9919378 C83.2028374,47.9973126 83.1625696,47.9973126 83.1226002,48 L83.1226002,48 Z M45.2157504,46.2403587 C45.3556435,45.5287984 45.4967297,44.7975305 45.6399039,44.0456593 L46.1392238,41.0142868 C46.9514388,36.9509577 47.8516463,32.419426 49.2240303,27.9043172 C45.8946346,25.394895 43.9006361,22.2843938 39.4225661,21.0687991 C36.3532701,20.2348134 34.4824611,20.9424919 33.1667502,22.6080747 C31.6091347,24.5800195 32.1263513,27.1467727 33.6311714,28.652008 L36.1176293,31.4059825 C39.1666423,34.9318342 40.8331298,37.6762536 40.2061463,41.3669317 C39.9007081,43.1755431 39.0282406,44.85516 37.7259523,46.2403587 L45.2157504,46.2403587 L45.2157504,46.2403587 Z" id="Shape" fill="#1CB5FE"></path>
        <path d="M74,71.1875 C75.7447917,71.1875 77.359375,70.7513021 78.84375,69.8789062 C80.328125,69.0065104 81.5065104,67.828125 82.3789062,66.34375 C83.2513021,64.859375 83.6875,63.2447917 83.6875,61.5 C83.6875,59.7552083 83.2513021,58.140625 82.3789062,56.65625 C81.5065104,55.171875 80.328125,53.9934896 78.84375,53.1210938 C77.359375,52.2486979 75.7447917,51.8125 74,51.8125 C72.2552083,51.8125 70.640625,52.2486979 69.15625,53.1210938 C67.671875,53.9934896 66.4934896,55.171875 65.6210938,56.65625 C64.7486979,58.140625 64.3125,59.7552083 64.3125,61.5 C64.3125,63.2447917 64.7486979,64.859375 65.6210938,66.34375 C66.4934896,67.828125 67.671875,69.0065104 69.15625,69.8789062 C70.640625,70.7513021 72.2552083,71.1875 74,71.1875 Z M74,69.3125 C72.59375,69.3125 71.2916667,68.9609375 70.09375,68.2578125 C68.8958333,67.5546875 67.9453125,66.6041667 67.2421875,65.40625 C66.5390625,64.2083333 66.1875,62.90625 66.1875,61.5 C66.1875,60.09375 66.5390625,58.7916667 67.2421875,57.59375 C67.9453125,56.3958333 68.8958333,55.4453125 70.09375,54.7421875 C71.2916667,54.0390625 72.59375,53.6875 74,53.6875 C75.40625,53.6875 76.7083333,54.0390625 77.90625,54.7421875 C79.1041667,55.4453125 80.0546875,56.3958333 80.7578125,57.59375 C81.4609375,58.7916667 81.8125,60.09375 81.8125,61.5 C81.8125,62.90625 81.4609375,64.2083333 80.7578125,65.40625 C80.0546875,66.6041667 79.1041667,67.5546875 77.90625,68.2578125 C76.7083333,68.9609375 75.40625,69.3125 74,69.3125 Z M71.65625,66.3828125 L78.53125,62.4375 C78.84375,62.2552083 79,61.9817708 79,61.6171875 C79,61.2526042 78.84375,60.9791667 78.53125,60.796875 L71.65625,56.6171875 C71.34375,56.4348958 71.03125,56.4348958 70.71875,56.6171875 C70.40625,56.7994792 70.25,57.0729167 70.25,57.4375 L70.25,65.5625 C70.25,65.9270833 70.40625,66.2005208 70.71875,66.3828125 C71.03125,66.5651042 71.34375,66.5651042 71.65625,66.3828125 Z" id="" fill="#1CB5FE" fill-rule="nonzero"></path>
        <path d="M25.21875,69 C25.7916667,69 26.2734375,68.8177083 26.6640625,68.453125 C27.0546875,68.0885417 27.25,67.6458333 27.25,67.125 L27.25,64.859375 L31.546875,67.515625 C31.7552083,67.671875 31.9895833,67.75 32.25,67.75 C32.5885417,67.75 32.8815104,67.6328125 33.1289062,67.3984375 C33.3763021,67.1640625 33.5,66.8645833 33.5,66.5 L33.5,56.4609375 C33.5,56.1223958 33.3763021,55.8359375 33.1289062,55.6015625 C32.8815104,55.3671875 32.5885417,55.25 32.25,55.25 C31.9895833,55.25 31.7552083,55.328125 31.546875,55.484375 L27.25,58.140625 L27.25,55.875 C27.25,55.3541667 27.0546875,54.9114583 26.6640625,54.546875 C26.2734375,54.1822917 25.7916667,54 25.21875,54 L13.03125,54 C12.4583333,54 11.9765625,54.1822917 11.5859375,54.546875 C11.1953125,54.9114583 11,55.3541667 11,55.875 L11,67.125 C11,67.6458333 11.1953125,68.0885417 11.5859375,68.453125 C11.9765625,68.8177083 12.4583333,69 13.03125,69 L25.21875,69 Z M25.21875,67.125 L13.03125,67.125 C12.953125,67.125 12.9010417,67.1119792 12.875,67.0859375 L12.875,55.9140625 C12.9270833,55.8880208 12.9791667,55.875 13.03125,55.875 L25.21875,55.875 C25.296875,55.875 25.3489583,55.8880208 25.375,55.9140625 L25.375,67.0859375 C25.3229167,67.1119792 25.2708333,67.125 25.21875,67.125 Z M31.625,65.3671875 L27.25,62.6328125 L27.25,60.3671875 L31.625,57.6328125 L31.625,65.3671875 Z" id="" fill="#1CB5FE" fill-rule="nonzero"></path>
        <path d="M48.296875,71.34375 C48.765625,71.5520833 49.234375,71.5520833 49.703125,71.34375 C51.0052083,70.8229167 52.2552083,69.9765625 53.453125,68.8046875 C54.8854167,67.3984375 56.03125,65.7578125 56.890625,63.8828125 C57.8802083,61.6432292 58.375,59.1822917 58.375,56.5 C58.375,56.109375 58.2708333,55.7578125 58.0625,55.4453125 C57.8541667,55.1328125 57.5677083,54.9114583 57.203125,54.78125 L57.203125,54.78125 L49.703125,51.65625 C49.234375,51.4479167 48.765625,51.4479167 48.296875,51.65625 L48.296875,51.65625 L40.796875,54.78125 C40.4322917,54.9114583 40.1458333,55.1328125 39.9375,55.4453125 C39.7291667,55.7578125 39.625,56.109375 39.625,56.5 C39.625,58.9479167 40.0677083,61.2526042 40.953125,63.4140625 C41.734375,65.3411458 42.8151042,67.0208333 44.1953125,68.453125 C45.4453125,69.78125 46.8125,70.7447917 48.296875,71.34375 Z M49,69.625 C47.6979167,69.078125 46.4869792,68.1927083 45.3671875,66.96875 C44.1953125,65.6927083 43.2708333,64.1953125 42.59375,62.4765625 C41.8645833,60.6015625 41.5,58.609375 41.5,56.5 L41.5,56.5 L49,53.375 L56.5,56.5 C56.5,58.6614583 56.1223958,60.6927083 55.3671875,62.59375 C54.6901042,64.2864583 53.7526042,65.7708333 52.5546875,67.046875 C51.4609375,68.2447917 50.2760417,69.1041667 49,69.625 Z M49,67.515625 L49,55.40625 L43.4140625,57.75 C43.5703125,59.9375 44.1692708,61.890625 45.2109375,63.609375 C46.1744792,65.25 47.4375,66.5520833 49,67.515625 L49,67.515625 Z" id="" fill="#1CB5FE" fill-rule="nonzero"></path>
        <path d="M142.971323,30.8088742 L133.095106,57.992582 C131.254767,63.1032672 129.311098,69 122.800669,69 C121.223875,69 120.327141,68.7903168 119.436159,68.6343768 L119.568251,66.9363868 C119.758719,65.7337233 120.60773,64.9525422 121.733494,65.0132678 C121.841511,65.0217313 121.952937,65.0323107 122.062019,65.0323107 C126.475595,65.0323107 127.946716,58.9821769 127.946716,58.4606136 C127.946716,57.8878462 127.316083,56.5315701 126.999489,55.6433257 L117.912415,30.8088742 L121.355753,30.8088742 C121.364276,30.8088742 121.370241,30.8147987 121.382172,30.8147987 C122.427829,30.8147987 123.438545,31.5305993 123.872531,32.4962848 L130.519739,52.8260377 L130.6252,52.8260377 L137.421118,32.4854938 C137.860004,31.5246748 138.868377,30.8147987 139.909134,30.8147987 C139.921064,30.8147987 139.923408,30.8088742 139.935339,30.8088742 L142.971323,30.8088742 L142.971323,30.8088742 Z M289.159618,30.8088742 L279.283401,57.992582 C277.443062,63.1032672 275.497049,69 268.985342,69 C267.411104,69 266.514157,68.7903168 265.621045,68.6343768 L265.755268,66.9363868 C265.945949,65.7337233 266.796024,64.9525422 267.918167,65.0132678 C268.029806,65.0217313 268.138888,65.0323107 268.246692,65.0323107 C272.660268,65.0323107 274.133732,58.9821769 274.133732,58.4606136 C274.133732,57.8878462 273.500756,56.5315701 273.184162,55.6433257 L264.097088,30.8088742 L267.54064,30.8088742 C267.548949,30.8088742 267.554914,30.8147987 267.564501,30.8147987 C268.609945,30.8147987 269.624284,31.5305993 270.057204,32.4962848 L276.704412,52.8260377 L276.812429,52.8260377 L283.605791,32.4854938 C284.042333,31.5246748 285.05305,30.8147987 286.093807,30.8147987 C286.105737,30.8147987 286.111703,30.8088742 286.120012,30.8088742 L289.159618,30.8088742 L289.159618,30.8088742 Z M220.042504,30.1838447 C228.185973,30.1838447 233.644992,36.0281038 233.644992,44.1132865 C233.644992,51.7304375 228.080512,58.0414587 220.042504,58.0414587 C211.954002,58.0414587 206.3859,51.7304375 206.3859,44.1132865 C206.3859,36.0281038 211.84492,30.1838447 220.042504,30.1838447 Z M318.576922,21.9154272 C316.697169,20.9302757 312.363274,20.5671915 310.222319,20.5671915 C298.943584,20.5671915 291.84215,28.2939449 291.84215,39.2878213 C291.84215,50.4890535 298.734793,58.0082395 310.222319,58.0082395 C312.519867,58.0082395 316.592773,57.6453669 318.576922,56.452648 C318.576922,56.452648 318.576922,56.452648 318.576922,56.4524364 C318.530903,55.7677391 318.183629,55.1376315 317.627352,54.7303255 C317.071287,54.3230195 316.362678,54.1795631 315.690287,54.3382538 C313.851865,54.7669301 311.775252,54.8968449 310.222319,54.8968449 C300.614547,54.8968449 295.445065,48.4146493 295.445065,39.2878213 C295.445065,30.3165101 300.77114,23.6785861 310.222319,23.6785861 C311.822336,23.6785861 313.708269,23.8205613 315.4587,24.2187691 C316.187549,24.3876159 316.954535,24.2291368 317.555127,23.7854378 C318.155719,23.3417388 318.529199,22.6578879 318.575857,21.9158504 C318.576922,21.9156388 318.576922,21.9154272 318.576922,21.9154272 L318.576922,21.9154272 Z M338.267145,53.133686 C336.804973,56.2971311 333.097663,58.0082395 329.808147,58.0082395 C322.236722,58.0082395 321.03575,52.9263302 321.03575,50.5408924 C321.03575,41.6732591 330.539127,41.2583359 337.43177,41.2583359 L338.058355,41.2583359 L338.058355,39.9101002 C338.058355,35.3984193 336.439589,33.1166594 332.0013,33.1166594 C330.214862,33.1166594 328.493832,33.3760657 326.837996,33.9788786 C326.229733,34.2018918 325.550099,34.1153525 325.017896,33.7471902 C324.485907,33.3790279 324.168886,32.7755803 324.168886,32.1317195 C324.168886,32.1315079 324.168886,32.1315079 324.168886,32.1315079 C326.205233,31.1461448 329.651554,30.3165101 332.0013,30.3165101 C338.580544,30.3165101 341.348084,33.2723878 341.348084,40.1692949 C341.348084,40.1692949 341.387924,49.8231875 341.407974,54.691605 C341.410934,55.4131184 341.12161,56.1056444 340.605173,56.6132429 C340.088523,57.1208414 339.388223,57.4007717 338.661717,57.3901923 C338.482327,57.3876532 338.371754,57.3859605 338.371754,57.3859605 L338.371754,53.133686 L338.267145,53.133686 L338.267145,53.133686 Z M378.238596,56.7636816 C380.588342,57.6972058 383.146878,58.0082395 385.705627,58.0082395 C389.726122,58.0082395 395,56.0895638 395,50.4890535 C395,41.8287759 381.893709,42.4510548 381.893709,37.5246624 C381.893709,34.1538615 384.243454,33.1166594 387.637578,33.1166594 C388.648934,33.1166594 389.820078,33.2596926 390.956708,33.5190989 C391.610776,33.6733462 392.300211,33.541104 392.849458,33.1562263 C393.398705,32.771137 393.75514,32.17044 393.828217,31.5066899 C393.851226,31.509229 393.851226,31.509229 393.851226,31.509229 C391.501481,30.6275437 388.681957,30.3165101 387.271982,30.3165101 C382.88589,30.3165101 378.604193,32.2870247 378.604193,37.5246624 C378.604193,45.1995768 391.397085,44.2142137 391.397085,50.4890535 C391.397085,53.4967702 388.629546,55.2080901 385.496623,55.2080901 C384.060869,55.2080901 382.674542,54.9956562 381.38345,54.6353227 C380.676971,54.435584 379.917656,54.5578816 379.310672,54.9687846 C378.703688,55.3798992 378.311886,56.0375132 378.241153,56.7636816 C378.238596,56.7636816 378.238596,56.7636816 378.238596,56.7636816 Z M344.789505,56.7636816 C347.13925,57.6972058 349.697786,58.0082395 352.256535,58.0082395 C356.277031,58.0082395 361.550909,56.0895638 361.550909,50.4890535 C361.550909,41.8287759 348.444617,42.4510548 348.444617,37.5246624 C348.444617,34.1538615 350.794363,33.1166594 354.188487,33.1166594 C355.199842,33.1166594 356.370987,33.2596926 357.507617,33.5190989 C358.161685,33.6733462 358.85112,33.541104 359.400366,33.1562263 C359.949613,32.771137 360.306049,32.17044 360.379125,31.5066899 C360.402135,31.509229 360.402135,31.509229 360.402135,31.509229 C358.052389,30.6275437 355.232865,30.3165101 353.82289,30.3165101 C349.436798,30.3165101 345.155102,32.2870247 345.155102,37.5246624 C345.155102,45.1995768 357.947994,44.2142137 357.947994,50.4890535 C357.947994,53.4967702 355.180455,55.2080901 352.047532,55.2080901 C350.611777,55.2080901 349.225451,54.9956562 347.934359,54.6353227 C347.22788,54.435584 346.468564,54.5578816 345.86158,54.9687846 C345.254597,55.3798992 344.862795,56.0375132 344.792062,56.7636816 C344.789505,56.7636816 344.789505,56.7636816 344.789505,56.7636816 Z M369.986258,33.7389383 L369.986258,50.8519261 C369.986258,53.2373639 370.873831,55.2080901 373.536975,55.2080901 C373.788376,55.2080901 374.022946,55.1975107 374.243454,55.1640799 C374.863008,55.1065281 375.480005,55.2982264 375.955962,55.6964341 C376.431706,56.0946419 376.72657,56.6661398 376.774293,57.2822827 C376.774293,57.2822827 376.774293,57.2822827 376.774293,57.2822827 C375.991116,57.5935279 374.37235,58.0082395 372.753798,58.0082395 C366.905533,58.0082395 366.696529,54.0153712 366.696529,49.1926567 L366.696529,33.7389383 C366.696529,33.7389383 366.077189,33.7389383 365.320856,33.7389383 C364.603085,33.7389383 363.914502,33.4558342 363.407014,32.9518327 C362.899525,32.4476196 362.614249,31.7639803 362.614249,31.051142 L362.614249,30.938789 L366.696529,30.938789 L366.696529,24.0446325 C366.696529,24.0446325 366.947504,24.0401892 367.310544,24.03363 C368.015745,24.0207231 368.696444,24.2900741 369.199672,24.7807455 C369.702687,25.271417 369.986258,25.9425727 369.986258,26.6429274 L369.986258,30.938789 L376.043313,30.938789 L376.043313,31.051142 C376.043313,31.7639803 375.75825,32.4476196 375.250549,32.9518327 C374.74306,33.4558342 374.05469,33.7389383 373.336707,33.7389383 L369.986258,33.7389383 L369.986258,33.7389383 Z M102.932548,57.9866575 L102.901229,57.9866575 C100.401496,57.9866575 97.9134798,57.3068268 95.4868228,56.5279731 L95.6353197,55.0931981 C95.776999,53.8107661 96.6845985,52.8414836 97.7924665,53.021333 C99.5573854,53.574846 101.651895,54.0536686 103.583633,54.059593 C106.883163,54.0536686 111.671922,52.2352853 111.695997,47.3080465 C111.657647,42.584355 107.167373,40.9697305 103.070392,39.0131807 C98.894369,37.0056382 95.0119309,34.786085 95,29.0632771 C95.0178963,22.5178169 100.113663,19.0871367 106.980314,19.045454 C108.863903,19.045454 111.026802,19.3038024 113.096385,19.8147862 L113.005198,21.4234862 C112.870976,22.5307238 111.923749,23.4096583 110.793084,23.3273508 C110.775188,23.3273508 110.775188,23.3440662 110.763044,23.3440662 C109.691182,23.1106852 108.595245,22.9761155 107.223619,22.9761155 C107.217653,22.9761155 107.203379,22.9761155 107.191235,22.978443 C104.031894,22.973788 99.9385346,24.1370963 99.9229819,28.5656232 C100.002237,32.7343207 104.462471,34.141801 108.542621,36.2136661 C112.700748,38.311768 116.609391,40.8743046 116.621322,46.9769121 C116.598526,54.8845728 110.622856,57.9318564 102.932548,57.9866575 Z M196.397405,57.4162176 L193.678228,57.4162176 L193.678228,34.7765636 L189.598078,34.7765636 C189.592113,34.7765636 189.587213,34.7706391 189.581247,34.7706391 C188.455483,34.7706391 187.532118,33.9465057 187.371477,32.8760844 L187.371477,30.8088742 L193.678228,30.8088742 L193.678228,28.6965959 C193.678228,22.2260377 195.36027,18 202.659842,18 C203.917485,18 204.972729,18.15594 205.968958,18.3131495 L205.883951,19.9195221 C205.815561,21.0912938 204.834885,22.0461883 203.653727,21.9604954 C203.641796,21.9604954 203.64414,21.9736138 203.635831,21.9736138 C203.554232,21.9700168 203.471568,21.9640924 203.392526,21.9640924 C199.14087,21.9640924 198.615698,24.6800299 198.615698,28.278499 L198.615698,30.8088742 L205.707757,30.8088742 L205.707757,32.6604767 C205.652577,33.8142635 204.717494,34.7382662 203.554232,34.7765636 L198.615698,34.7765636 L198.615698,55.4920406 C198.463366,56.5732528 197.537657,57.4151596 196.405927,57.4151596 C196.399962,57.4151596 196.40337,57.4162176 196.397405,57.4162176 L196.397405,57.4162176 Z M149.636854,57.4162176 L146.961779,57.4162176 L146.961779,30.8088742 L149.323881,30.8088742 C149.33219,30.8088742 149.338368,30.8147987 149.347956,30.8147987 C150.578115,30.8147987 151.568379,31.7984691 151.586275,33.015309 L151.586275,34.6718277 L151.691949,34.6718277 C153.579159,31.5923828 156.259987,30.1838447 160.198671,30.1838447 C163.299423,30.1838447 166.397618,31.7495924 167.818246,35.349331 C169.656454,31.5424482 173.700599,30.1838447 176.115325,30.1838447 C182.948314,30.1838447 185.413533,34.5668803 185.413533,40.3588773 L185.413533,55.6801419 C185.188125,56.6743917 184.2997,57.4151596 183.233803,57.4151596 C183.230394,57.4151596 183.230181,57.4162176 183.227837,57.4162176 L180.478407,57.4162176 L180.478407,41.5579439 C180.478407,38.2702968 179.687134,34.1502645 175.695613,34.1502645 C170.65524,34.1502645 168.65639,39.0548634 168.65639,44.0108781 L168.65639,55.3909017 C168.55093,56.5243761 167.607325,57.4151596 166.440654,57.4151596 C166.434902,57.4151596 166.434689,57.4162176 166.432345,57.4162176 L163.721478,57.4162176 L163.721478,41.5579439 C163.721478,38.2702968 162.929991,34.1502645 158.938684,34.1502645 C153.895541,34.1502645 151.899248,39.0548634 151.899248,44.0108781 L151.899248,55.1228203 C151.893282,55.1444023 151.88263,55.1575207 151.88263,55.1907399 C151.88263,56.4183708 150.880222,57.4151596 149.642819,57.4151596 C149.640689,57.4151596 149.637493,57.4162176 149.636854,57.4162176 Z M240.792658,57.4162176 L238.079234,57.4162176 L238.079234,30.8088742 L240.593455,30.8088742 C240.601977,30.8088742 240.604321,30.8147987 240.616252,30.8147987 C241.853655,30.8147987 242.856062,31.810318 242.856062,33.0428154 C242.856062,33.0474703 242.86075,33.0474703 242.86075,33.0500093 L242.86075,35.0385089 L242.963866,35.0385089 C244.437544,32.0115377 248.007009,30.1838447 251.738181,30.1838447 C258.671943,30.1838447 261.772482,34.463414 261.772482,41.610206 L261.772482,55.2931483 C261.716237,56.4731719 260.746213,57.4151596 259.544815,57.4151596 C259.539063,57.4151596 259.53885,57.4162176 259.536506,57.4162176 L256.831391,57.4162176 L256.831391,43.6439853 C256.831391,37.4343145 255.471909,34.4096708 251.160172,34.1502645 C245.539446,34.1502645 243.016703,38.636978 243.016703,45.1052088 L243.016703,55.3669923 C242.925517,56.5112577 241.973603,57.4151596 240.798624,57.4151596 C240.79351,57.4151596 240.792658,57.4162176 240.792658,57.4162176 L240.792658,57.4162176 Z M338.057503,45.6663389 C338.057503,48.5183272 337.90091,55.2080901 330.172891,55.2080901 C327.144364,55.2080901 324.637812,53.9116933 324.637812,50.4372145 C324.637812,44.6291368 331.42606,44.0586969 337.117519,44.0586969 L338.057503,44.0586969 L338.057503,45.6663389 Z M220.041652,54.0809633 C225.817266,54.0809633 228.390289,48.8632149 228.390289,44.1132865 C228.390289,39.0548634 225.293159,34.1502645 220.041652,34.1502645 C214.737307,34.1502645 211.636768,39.0548634 211.636768,44.1132865 C211.636768,48.8632149 214.209792,54.0809633 220.041652,54.0809633 Z" id="Shape" fill="#E1E1E1"></path>
    </g>
</svg>